<svg xmlns="http://www.w3.org/2000/svg" xmlns:xlink="http://www.w3.org/1999/xlink" width="500" zoomAndPan="magnify" viewBox="0 0 375 374.999991" height="500" preserveAspectRatio="xMidYMid meet" version="1.0"><defs><filter x="0%" y="0%" width="100%" height="100%" id="d4152ec1da"><feColorMatrix values="0 0 0 0 1 0 0 0 0 1 0 0 0 0 1 0 0 0 1 0" color-interpolation-filters="sRGB"/></filter><g/><mask id="e57c23de76"><g filter="url(#d4152ec1da)"><rect x="-37.5" width="450" fill="#000000" y="-37.499999" height="449.999989" fill-opacity="0.13"/></g></mask><clipPath id="1f535c41b3"><path d="M 96 178 L 175 178 L 175 287.71875 L 96 287.71875 Z M 96 178 " clip-rule="nonzero"/></clipPath><clipPath id="5619ebe89d"><path d="M 192 131 L 270.523438 131 L 270.523438 240 L 192 240 Z M 192 131 " clip-rule="nonzero"/></clipPath><clipPath id="e8e9be6b11"><path d="M 0.558594 131 L 79 131 L 79 240 L 0.558594 240 Z M 0.558594 131 " clip-rule="nonzero"/></clipPath><clipPath id="6e9973333f"><path d="M 109 0.5 L 162 0.5 L 162 53 L 109 53 Z M 109 0.5 " clip-rule="nonzero"/></clipPath><clipPath id="61fac8c507"><rect x="0" width="271" y="0" height="288"/></clipPath></defs><g mask="url(#e57c23de76)"><g transform="matrix(1, 0, 0, 1, 52, 37)"><g clip-path="url(#61fac8c507)"><path fill="#a6a6a6" d="M 161.605469 144.089844 C 161.605469 144.945312 161.566406 145.796875 161.480469 146.648438 C 161.398438 147.5 161.273438 148.34375 161.105469 149.183594 C 160.9375 150.023438 160.730469 150.851562 160.484375 151.667969 C 160.234375 152.488281 159.945312 153.289062 159.621094 154.082031 C 159.292969 154.871094 158.925781 155.644531 158.523438 156.398438 C 158.121094 157.152344 157.683594 157.882812 157.207031 158.59375 C 156.730469 159.304688 156.222656 159.992188 155.679688 160.652344 C 155.136719 161.3125 154.566406 161.945312 153.960938 162.550781 C 153.355469 163.15625 152.722656 163.730469 152.0625 164.269531 C 151.402344 164.8125 150.714844 165.320312 150.003906 165.796875 C 149.292969 166.273438 148.5625 166.710938 147.804688 167.113281 C 147.050781 167.515625 146.28125 167.882812 145.492188 168.210938 C 144.699219 168.535156 143.894531 168.824219 143.078125 169.074219 C 142.261719 169.320312 141.429688 169.527344 140.59375 169.695312 C 139.753906 169.863281 138.910156 169.988281 138.058594 170.070312 C 137.207031 170.15625 136.355469 170.195312 135.5 170.195312 C 134.644531 170.195312 133.792969 170.15625 132.941406 170.070312 C 132.089844 169.988281 131.246094 169.863281 130.40625 169.695312 C 129.566406 169.527344 128.738281 169.320312 127.921875 169.074219 C 127.101562 168.824219 126.296875 168.535156 125.507812 168.210938 C 124.71875 167.882812 123.945312 167.515625 123.191406 167.113281 C 122.4375 166.710938 121.707031 166.273438 120.996094 165.796875 C 120.285156 165.320312 119.597656 164.8125 118.9375 164.269531 C 118.277344 163.730469 117.644531 163.15625 117.039062 162.550781 C 116.433594 161.945312 115.859375 161.3125 115.320312 160.652344 C 114.777344 159.992188 114.265625 159.304688 113.792969 158.59375 C 113.316406 157.882812 112.878906 157.152344 112.476562 156.398438 C 112.070312 155.644531 111.707031 154.871094 111.378906 154.082031 C 111.050781 153.289062 110.765625 152.488281 110.515625 151.667969 C 110.269531 150.851562 110.0625 150.023438 109.894531 149.183594 C 109.726562 148.34375 109.601562 147.5 109.519531 146.648438 C 109.433594 145.796875 109.390625 144.945312 109.390625 144.089844 C 109.390625 143.234375 109.433594 142.382812 109.519531 141.53125 C 109.601562 140.679688 109.726562 139.835938 109.894531 138.996094 C 110.0625 138.15625 110.269531 137.328125 110.515625 136.511719 C 110.765625 135.691406 111.050781 134.890625 111.378906 134.097656 C 111.707031 133.308594 112.070312 132.535156 112.476562 131.78125 C 112.878906 131.027344 113.316406 130.296875 113.792969 129.585938 C 114.265625 128.875 114.777344 128.1875 115.320312 127.527344 C 115.859375 126.867188 116.433594 126.234375 117.039062 125.628906 C 117.644531 125.023438 118.277344 124.449219 118.9375 123.910156 C 119.597656 123.367188 120.285156 122.859375 120.996094 122.382812 C 121.707031 121.90625 122.4375 121.46875 123.191406 121.066406 C 123.945312 120.664062 124.71875 120.296875 125.507812 119.96875 C 126.296875 119.644531 127.101562 119.355469 127.921875 119.105469 C 128.738281 118.859375 129.566406 118.652344 130.40625 118.484375 C 131.246094 118.316406 132.089844 118.191406 132.941406 118.109375 C 133.792969 118.023438 134.644531 117.984375 135.5 117.984375 C 136.355469 117.984375 137.207031 118.023438 138.058594 118.109375 C 138.910156 118.191406 139.753906 118.316406 140.59375 118.484375 C 141.429688 118.652344 142.261719 118.859375 143.078125 119.105469 C 143.894531 119.355469 144.699219 119.644531 145.492188 119.96875 C 146.28125 120.296875 147.050781 120.664062 147.804688 121.066406 C 148.5625 121.46875 149.292969 121.90625 150.003906 122.382812 C 150.714844 122.859375 151.402344 123.367188 152.0625 123.910156 C 152.722656 124.449219 153.355469 125.023438 153.960938 125.628906 C 154.566406 126.234375 155.136719 126.867188 155.679688 127.527344 C 156.222656 128.1875 156.730469 128.875 157.207031 129.585938 C 157.683594 130.296875 158.121094 131.027344 158.523438 131.78125 C 158.925781 132.535156 159.292969 133.308594 159.621094 134.097656 C 159.945312 134.890625 160.234375 135.691406 160.484375 136.511719 C 160.730469 137.328125 160.9375 138.15625 161.105469 138.996094 C 161.273438 139.835938 161.398438 140.679688 161.480469 141.53125 C 161.566406 142.382812 161.605469 143.234375 161.605469 144.089844 Z M 161.605469 144.089844 " fill-opacity="1" fill-rule="nonzero"/><g clip-path="url(#1f535c41b3)"><path fill="#a6a6a6" d="M 174.660156 218.058594 L 174.660156 283.328125 C 174.660156 283.613281 174.632812 283.898438 174.574219 284.175781 C 174.519531 284.457031 174.433594 284.726562 174.324219 284.992188 C 174.214844 285.253906 174.082031 285.503906 173.921875 285.742188 C 173.765625 285.980469 173.585938 286.199219 173.382812 286.402344 C 173.179688 286.601562 172.960938 286.785156 172.722656 286.941406 C 172.488281 287.101562 172.234375 287.234375 171.972656 287.34375 C 171.707031 287.453125 171.4375 287.539062 171.15625 287.59375 C 170.878906 287.648438 170.59375 287.679688 170.308594 287.679688 L 100.691406 287.679688 C 100.40625 287.679688 100.121094 287.648438 99.84375 287.59375 C 99.5625 287.539062 99.289062 287.453125 99.027344 287.34375 C 98.761719 287.234375 98.511719 287.101562 98.277344 286.941406 C 98.039062 286.785156 97.820312 286.601562 97.617188 286.402344 C 97.414062 286.199219 97.234375 285.980469 97.074219 285.742188 C 96.917969 285.503906 96.78125 285.253906 96.671875 284.992188 C 96.5625 284.726562 96.480469 284.457031 96.425781 284.175781 C 96.367188 283.898438 96.339844 283.613281 96.339844 283.328125 L 96.339844 218.058594 C 96.339844 216.777344 96.402344 215.5 96.527344 214.222656 C 96.652344 212.945312 96.839844 211.679688 97.089844 210.421875 C 97.339844 209.164062 97.652344 207.921875 98.023438 206.691406 C 98.398438 205.464844 98.828125 204.257812 99.320312 203.074219 C 99.808594 201.890625 100.359375 200.730469 100.960938 199.601562 C 101.566406 198.46875 102.226562 197.371094 102.9375 196.304688 C 103.652344 195.238281 104.414062 194.207031 105.226562 193.21875 C 106.042969 192.226562 106.902344 191.277344 107.808594 190.371094 C 108.714844 189.460938 109.664062 188.601562 110.65625 187.789062 C 111.648438 186.976562 112.675781 186.210938 113.742188 185.5 C 114.808594 184.785156 115.910156 184.128906 117.039062 183.523438 C 118.171875 182.917969 119.328125 182.371094 120.511719 181.878906 C 121.699219 181.390625 122.90625 180.957031 124.132812 180.585938 C 125.359375 180.214844 126.601562 179.902344 127.859375 179.652344 C 129.117188 179.402344 130.386719 179.214844 131.660156 179.089844 C 132.9375 178.960938 134.21875 178.898438 135.5 178.898438 C 136.78125 178.898438 138.0625 178.960938 139.339844 179.089844 C 140.613281 179.214844 141.882812 179.402344 143.140625 179.652344 C 144.398438 179.902344 145.640625 180.214844 146.867188 180.585938 C 148.09375 180.957031 149.300781 181.390625 150.484375 181.878906 C 151.671875 182.371094 152.828125 182.917969 153.960938 183.523438 C 155.089844 184.128906 156.191406 184.785156 157.257812 185.5 C 158.324219 186.210938 159.351562 186.976562 160.34375 187.789062 C 161.335938 188.601562 162.285156 189.460938 163.191406 190.371094 C 164.097656 191.277344 164.957031 192.226562 165.769531 193.21875 C 166.585938 194.207031 167.347656 195.238281 168.0625 196.304688 C 168.773438 197.371094 169.433594 198.46875 170.035156 199.601562 C 170.640625 200.730469 171.1875 201.890625 171.679688 203.074219 C 172.171875 204.257812 172.601562 205.464844 172.972656 206.691406 C 173.347656 207.921875 173.65625 209.164062 173.90625 210.421875 C 174.160156 211.679688 174.347656 212.945312 174.472656 214.222656 C 174.597656 215.5 174.660156 216.777344 174.660156 218.058594 Z M 174.660156 218.058594 " fill-opacity="1" fill-rule="nonzero"/></g><path fill="#a6a6a6" d="M 257.332031 96.226562 C 257.332031 97.082031 257.292969 97.933594 257.207031 98.785156 C 257.125 99.636719 257 100.480469 256.832031 101.320312 C 256.664062 102.160156 256.457031 102.988281 256.210938 103.804688 C 255.960938 104.625 255.671875 105.425781 255.347656 106.21875 C 255.019531 107.007812 254.652344 107.78125 254.25 108.535156 C 253.847656 109.289062 253.410156 110.019531 252.933594 110.730469 C 252.457031 111.441406 251.949219 112.128906 251.40625 112.789062 C 250.863281 113.449219 250.292969 114.082031 249.6875 114.6875 C 249.082031 115.292969 248.449219 115.867188 247.789062 116.40625 C 247.128906 116.949219 246.441406 117.457031 245.730469 117.933594 C 245.019531 118.410156 244.289062 118.847656 243.53125 119.25 C 242.777344 119.652344 242.007812 120.019531 241.21875 120.347656 C 240.425781 120.671875 239.621094 120.960938 238.804688 121.210938 C 237.988281 121.457031 237.15625 121.664062 236.320312 121.832031 C 235.480469 122 234.636719 122.125 233.785156 122.207031 C 232.933594 122.292969 232.082031 122.332031 231.226562 122.332031 C 230.371094 122.332031 229.519531 122.292969 228.667969 122.207031 C 227.816406 122.125 226.972656 122 226.132812 121.832031 C 225.292969 121.664062 224.464844 121.457031 223.648438 121.210938 C 222.828125 120.960938 222.023438 120.671875 221.234375 120.347656 C 220.445312 120.019531 219.671875 119.652344 218.917969 119.25 C 218.164062 118.847656 217.433594 118.410156 216.722656 117.933594 C 216.011719 117.457031 215.324219 116.949219 214.664062 116.40625 C 214.003906 115.867188 213.371094 115.292969 212.765625 114.6875 C 212.160156 114.082031 211.585938 113.449219 211.046875 112.789062 C 210.503906 112.128906 209.992188 111.441406 209.519531 110.730469 C 209.042969 110.019531 208.605469 109.289062 208.203125 108.535156 C 207.796875 107.78125 207.433594 107.007812 207.105469 106.21875 C 206.777344 105.425781 206.492188 104.625 206.242188 103.804688 C 205.996094 102.988281 205.789062 102.160156 205.621094 101.320312 C 205.453125 100.480469 205.328125 99.636719 205.246094 98.785156 C 205.160156 97.933594 205.117188 97.082031 205.117188 96.226562 C 205.117188 95.371094 205.160156 94.519531 205.246094 93.667969 C 205.328125 92.816406 205.453125 91.972656 205.621094 91.132812 C 205.789062 90.292969 205.996094 89.464844 206.242188 88.648438 C 206.492188 87.828125 206.777344 87.027344 207.105469 86.234375 C 207.433594 85.445312 207.796875 84.671875 208.203125 83.917969 C 208.605469 83.164062 209.042969 82.433594 209.519531 81.722656 C 209.992188 81.011719 210.503906 80.324219 211.046875 79.664062 C 211.585938 79.003906 212.160156 78.371094 212.765625 77.765625 C 213.371094 77.160156 214.003906 76.585938 214.664062 76.046875 C 215.324219 75.503906 216.011719 74.996094 216.722656 74.519531 C 217.433594 74.042969 218.164062 73.605469 218.917969 73.203125 C 219.671875 72.800781 220.445312 72.433594 221.234375 72.105469 C 222.023438 71.78125 222.828125 71.492188 223.648438 71.242188 C 224.464844 70.996094 225.292969 70.789062 226.132812 70.621094 C 226.972656 70.453125 227.816406 70.328125 228.667969 70.246094 C 229.519531 70.160156 230.371094 70.121094 231.226562 70.121094 C 232.082031 70.121094 232.933594 70.160156 233.785156 70.246094 C 234.636719 70.328125 235.480469 70.453125 236.320312 70.621094 C 237.15625 70.789062 237.988281 70.996094 238.804688 71.242188 C 239.621094 71.492188 240.425781 71.78125 241.21875 72.105469 C 242.007812 72.433594 242.777344 72.800781 243.53125 73.203125 C 244.289062 73.605469 245.019531 74.042969 245.730469 74.519531 C 246.441406 74.996094 247.128906 75.503906 247.789062 76.046875 C 248.449219 76.585938 249.082031 77.160156 249.6875 77.765625 C 250.292969 78.371094 250.863281 79.003906 251.40625 79.664062 C 251.949219 80.324219 252.457031 81.011719 252.933594 81.722656 C 253.410156 82.433594 253.847656 83.164062 254.25 83.917969 C 254.652344 84.671875 255.019531 85.445312 255.347656 86.234375 C 255.671875 87.027344 255.960938 87.828125 256.210938 88.648438 C 256.457031 89.464844 256.664062 90.292969 256.832031 91.132812 C 257 91.972656 257.125 92.816406 257.207031 93.667969 C 257.292969 94.519531 257.332031 95.371094 257.332031 96.226562 Z M 257.332031 96.226562 " fill-opacity="1" fill-rule="nonzero"/><g clip-path="url(#5619ebe89d)"><path fill="#a6a6a6" d="M 270.386719 170.195312 L 270.386719 235.464844 C 270.386719 235.75 270.359375 236.035156 270.300781 236.3125 C 270.246094 236.59375 270.160156 236.863281 270.050781 237.128906 C 269.941406 237.390625 269.808594 237.640625 269.648438 237.878906 C 269.492188 238.117188 269.3125 238.335938 269.109375 238.539062 C 268.90625 238.738281 268.6875 238.921875 268.449219 239.078125 C 268.214844 239.238281 267.960938 239.371094 267.699219 239.480469 C 267.433594 239.589844 267.164062 239.675781 266.882812 239.730469 C 266.605469 239.785156 266.320312 239.816406 266.035156 239.816406 L 196.417969 239.816406 C 196.132812 239.816406 195.847656 239.785156 195.570312 239.730469 C 195.289062 239.675781 195.015625 239.589844 194.753906 239.480469 C 194.488281 239.371094 194.238281 239.238281 194.003906 239.078125 C 193.765625 238.921875 193.546875 238.738281 193.34375 238.539062 C 193.140625 238.335938 192.960938 238.117188 192.800781 237.878906 C 192.644531 237.640625 192.507812 237.390625 192.398438 237.128906 C 192.289062 236.863281 192.207031 236.59375 192.152344 236.3125 C 192.09375 236.035156 192.066406 235.75 192.066406 235.464844 L 192.066406 170.195312 C 192.066406 168.914062 192.128906 167.636719 192.253906 166.359375 C 192.378906 165.082031 192.566406 163.816406 192.816406 162.558594 C 193.066406 161.300781 193.378906 160.054688 193.75 158.828125 C 194.125 157.601562 194.554688 156.394531 195.046875 155.210938 C 195.535156 154.027344 196.085938 152.867188 196.6875 151.738281 C 197.292969 150.605469 197.953125 149.507812 198.664062 148.441406 C 199.378906 147.375 200.140625 146.34375 200.953125 145.355469 C 201.769531 144.363281 202.628906 143.414062 203.535156 142.507812 C 204.441406 141.597656 205.390625 140.738281 206.382812 139.925781 C 207.375 139.113281 208.402344 138.347656 209.46875 137.636719 C 210.535156 136.921875 211.636719 136.265625 212.765625 135.660156 C 213.898438 135.054688 215.054688 134.507812 216.238281 134.015625 C 217.425781 133.527344 218.632812 133.09375 219.859375 132.722656 C 221.085938 132.351562 222.328125 132.039062 223.585938 131.789062 C 224.84375 131.539062 226.113281 131.351562 227.386719 131.226562 C 228.664062 131.097656 229.945312 131.035156 231.226562 131.035156 C 232.507812 131.035156 233.789062 131.097656 235.066406 131.226562 C 236.339844 131.351562 237.609375 131.539062 238.867188 131.789062 C 240.125 132.039062 241.367188 132.351562 242.59375 132.722656 C 243.820312 133.09375 245.027344 133.527344 246.210938 134.015625 C 247.398438 134.507812 248.554688 135.054688 249.6875 135.660156 C 250.816406 136.265625 251.917969 136.921875 252.984375 137.636719 C 254.050781 138.347656 255.078125 139.113281 256.070312 139.925781 C 257.0625 140.738281 258.011719 141.597656 258.917969 142.507812 C 259.824219 143.414062 260.683594 144.363281 261.496094 145.355469 C 262.3125 146.34375 263.074219 147.375 263.789062 148.441406 C 264.5 149.507812 265.160156 150.605469 265.761719 151.738281 C 266.367188 152.867188 266.914062 154.027344 267.40625 155.210938 C 267.898438 156.394531 268.328125 157.601562 268.699219 158.828125 C 269.074219 160.054688 269.382812 161.300781 269.632812 162.558594 C 269.886719 163.816406 270.074219 165.082031 270.199219 166.359375 C 270.324219 167.636719 270.386719 168.914062 270.386719 170.195312 Z M 270.386719 170.195312 " fill-opacity="1" fill-rule="nonzero"/></g><path fill="#a6a6a6" d="M 65.878906 96.226562 C 65.878906 97.082031 65.839844 97.933594 65.753906 98.785156 C 65.671875 99.636719 65.546875 100.480469 65.378906 101.320312 C 65.210938 102.160156 65.003906 102.988281 64.757812 103.804688 C 64.507812 104.625 64.21875 105.425781 63.894531 106.21875 C 63.566406 107.007812 63.199219 107.78125 62.796875 108.535156 C 62.394531 109.289062 61.957031 110.019531 61.480469 110.730469 C 61.003906 111.441406 60.496094 112.128906 59.953125 112.789062 C 59.410156 113.449219 58.839844 114.082031 58.234375 114.6875 C 57.628906 115.292969 56.996094 115.867188 56.335938 116.40625 C 55.675781 116.949219 54.988281 117.457031 54.277344 117.933594 C 53.566406 118.410156 52.835938 118.847656 52.078125 119.25 C 51.324219 119.652344 50.554688 120.019531 49.765625 120.347656 C 48.972656 120.671875 48.167969 120.960938 47.351562 121.210938 C 46.535156 121.457031 45.703125 121.664062 44.867188 121.832031 C 44.027344 122 43.183594 122.125 42.332031 122.207031 C 41.480469 122.292969 40.628906 122.332031 39.773438 122.332031 C 38.917969 122.332031 38.066406 122.292969 37.214844 122.207031 C 36.363281 122.125 35.519531 122 34.679688 121.832031 C 33.839844 121.664062 33.011719 121.457031 32.195312 121.210938 C 31.375 120.960938 30.570312 120.671875 29.78125 120.347656 C 28.992188 120.019531 28.21875 119.652344 27.464844 119.25 C 26.710938 118.847656 25.980469 118.410156 25.269531 117.933594 C 24.558594 117.457031 23.871094 116.949219 23.210938 116.40625 C 22.550781 115.867188 21.917969 115.292969 21.3125 114.6875 C 20.707031 114.082031 20.132812 113.449219 19.59375 112.789062 C 19.050781 112.128906 18.539062 111.441406 18.066406 110.730469 C 17.589844 110.019531 17.152344 109.289062 16.75 108.535156 C 16.34375 107.78125 15.980469 107.007812 15.652344 106.21875 C 15.324219 105.425781 15.039062 104.625 14.789062 103.804688 C 14.542969 102.988281 14.335938 102.160156 14.167969 101.320312 C 14 100.480469 13.875 99.636719 13.792969 98.785156 C 13.707031 97.933594 13.664062 97.082031 13.664062 96.226562 C 13.664062 95.371094 13.707031 94.519531 13.792969 93.667969 C 13.875 92.816406 14 91.972656 14.167969 91.132812 C 14.335938 90.292969 14.542969 89.464844 14.789062 88.648438 C 15.039062 87.828125 15.324219 87.027344 15.652344 86.234375 C 15.980469 85.445312 16.34375 84.671875 16.75 83.917969 C 17.152344 83.164062 17.589844 82.433594 18.066406 81.722656 C 18.539062 81.011719 19.050781 80.324219 19.59375 79.664062 C 20.132812 79.003906 20.707031 78.371094 21.3125 77.765625 C 21.917969 77.160156 22.550781 76.585938 23.210938 76.046875 C 23.871094 75.503906 24.558594 74.996094 25.269531 74.519531 C 25.980469 74.042969 26.710938 73.605469 27.464844 73.203125 C 28.21875 72.800781 28.992188 72.433594 29.78125 72.105469 C 30.570312 71.78125 31.375 71.492188 32.195312 71.242188 C 33.011719 70.996094 33.839844 70.789062 34.679688 70.621094 C 35.519531 70.453125 36.363281 70.328125 37.214844 70.246094 C 38.066406 70.160156 38.917969 70.121094 39.773438 70.121094 C 40.628906 70.121094 41.480469 70.160156 42.332031 70.246094 C 43.183594 70.328125 44.027344 70.453125 44.867188 70.621094 C 45.703125 70.789062 46.535156 70.996094 47.351562 71.242188 C 48.167969 71.492188 48.972656 71.78125 49.765625 72.105469 C 50.554688 72.433594 51.324219 72.800781 52.078125 73.203125 C 52.835938 73.605469 53.566406 74.042969 54.277344 74.519531 C 54.988281 74.996094 55.675781 75.503906 56.335938 76.046875 C 56.996094 76.585938 57.628906 77.160156 58.234375 77.765625 C 58.839844 78.371094 59.410156 79.003906 59.953125 79.664062 C 60.496094 80.324219 61.003906 81.011719 61.480469 81.722656 C 61.957031 82.433594 62.394531 83.164062 62.796875 83.917969 C 63.199219 84.671875 63.566406 85.445312 63.894531 86.234375 C 64.21875 87.027344 64.507812 87.828125 64.757812 88.648438 C 65.003906 89.464844 65.210938 90.292969 65.378906 91.132812 C 65.546875 91.972656 65.671875 92.816406 65.753906 93.667969 C 65.839844 94.519531 65.878906 95.371094 65.878906 96.226562 Z M 65.878906 96.226562 " fill-opacity="1" fill-rule="nonzero"/><g clip-path="url(#e8e9be6b11)"><path fill="#a6a6a6" d="M 78.933594 170.195312 L 78.933594 235.464844 C 78.933594 235.75 78.90625 236.035156 78.847656 236.3125 C 78.792969 236.59375 78.707031 236.863281 78.597656 237.128906 C 78.488281 237.390625 78.355469 237.640625 78.195312 237.878906 C 78.039062 238.117188 77.859375 238.335938 77.65625 238.539062 C 77.453125 238.738281 77.234375 238.921875 76.996094 239.078125 C 76.761719 239.238281 76.507812 239.371094 76.246094 239.480469 C 75.980469 239.589844 75.710938 239.675781 75.429688 239.730469 C 75.152344 239.785156 74.867188 239.816406 74.582031 239.816406 L 4.964844 239.816406 C 4.679688 239.816406 4.394531 239.785156 4.117188 239.730469 C 3.835938 239.675781 3.5625 239.589844 3.300781 239.480469 C 3.035156 239.371094 2.785156 239.238281 2.550781 239.078125 C 2.3125 238.921875 2.09375 238.738281 1.890625 238.539062 C 1.6875 238.335938 1.507812 238.117188 1.347656 237.878906 C 1.191406 237.640625 1.054688 237.390625 0.945312 237.128906 C 0.835938 236.863281 0.753906 236.59375 0.699219 236.3125 C 0.640625 236.035156 0.613281 235.75 0.613281 235.464844 L 0.613281 170.195312 C 0.613281 168.914062 0.675781 167.636719 0.800781 166.359375 C 0.925781 165.082031 1.113281 163.816406 1.363281 162.558594 C 1.613281 161.300781 1.925781 160.054688 2.296875 158.828125 C 2.671875 157.601562 3.101562 156.394531 3.59375 155.210938 C 4.085938 154.027344 4.632812 152.867188 5.234375 151.738281 C 5.839844 150.605469 6.5 149.507812 7.210938 148.441406 C 7.925781 147.375 8.6875 146.34375 9.5 145.355469 C 10.316406 144.363281 11.175781 143.414062 12.082031 142.507812 C 12.988281 141.597656 13.9375 140.738281 14.929688 139.925781 C 15.921875 139.113281 16.949219 138.347656 18.015625 137.636719 C 19.082031 136.921875 20.183594 136.265625 21.3125 135.660156 C 22.445312 135.054688 23.601562 134.507812 24.785156 134.015625 C 25.972656 133.527344 27.179688 133.09375 28.40625 132.722656 C 29.632812 132.351562 30.875 132.039062 32.132812 131.789062 C 33.390625 131.539062 34.660156 131.351562 35.933594 131.226562 C 37.210938 131.097656 38.492188 131.035156 39.773438 131.035156 C 41.054688 131.035156 42.335938 131.097656 43.613281 131.226562 C 44.886719 131.351562 46.15625 131.539062 47.414062 131.789062 C 48.671875 132.039062 49.914062 132.351562 51.140625 132.722656 C 52.367188 133.09375 53.574219 133.527344 54.757812 134.015625 C 55.945312 134.507812 57.101562 135.054688 58.234375 135.660156 C 59.363281 136.265625 60.464844 136.921875 61.53125 137.636719 C 62.597656 138.347656 63.625 139.113281 64.617188 139.925781 C 65.609375 140.738281 66.558594 141.597656 67.464844 142.507812 C 68.371094 143.414062 69.230469 144.363281 70.042969 145.355469 C 70.859375 146.34375 71.621094 147.375 72.335938 148.441406 C 73.046875 149.507812 73.707031 150.605469 74.308594 151.738281 C 74.914062 152.867188 75.460938 154.027344 75.953125 155.210938 C 76.445312 156.394531 76.875 157.601562 77.246094 158.828125 C 77.621094 160.054688 77.929688 161.300781 78.179688 162.558594 C 78.433594 163.816406 78.621094 165.082031 78.746094 166.359375 C 78.871094 167.636719 78.933594 168.914062 78.933594 170.195312 Z M 78.933594 170.195312 " fill-opacity="1" fill-rule="nonzero"/></g><g clip-path="url(#6e9973333f)"><path fill="#a6a6a6" d="M 161.605469 26.605469 C 161.605469 27.460938 161.566406 28.316406 161.480469 29.167969 C 161.398438 30.015625 161.273438 30.863281 161.105469 31.699219 C 160.9375 32.539062 160.730469 33.367188 160.484375 34.1875 C 160.234375 35.003906 159.945312 35.808594 159.621094 36.597656 C 159.292969 37.386719 158.925781 38.160156 158.523438 38.914062 C 158.121094 39.667969 157.683594 40.402344 157.207031 41.113281 C 156.730469 41.824219 156.222656 42.507812 155.679688 43.167969 C 155.136719 43.832031 154.566406 44.464844 153.960938 45.066406 C 153.355469 45.671875 152.722656 46.246094 152.0625 46.789062 C 151.402344 47.332031 150.714844 47.839844 150.003906 48.316406 C 149.292969 48.789062 148.5625 49.230469 147.804688 49.632812 C 147.050781 50.035156 146.28125 50.398438 145.492188 50.726562 C 144.699219 51.054688 143.894531 51.34375 143.078125 51.589844 C 142.261719 51.839844 141.429688 52.046875 140.59375 52.210938 C 139.753906 52.378906 138.910156 52.503906 138.058594 52.589844 C 137.207031 52.671875 136.355469 52.714844 135.5 52.714844 C 134.644531 52.714844 133.792969 52.671875 132.941406 52.589844 C 132.089844 52.503906 131.246094 52.378906 130.40625 52.210938 C 129.566406 52.046875 128.738281 51.839844 127.921875 51.589844 C 127.101562 51.34375 126.296875 51.054688 125.507812 50.726562 C 124.71875 50.398438 123.945312 50.035156 123.191406 49.632812 C 122.4375 49.230469 121.707031 48.789062 120.996094 48.316406 C 120.285156 47.839844 119.597656 47.332031 118.9375 46.789062 C 118.277344 46.246094 117.644531 45.671875 117.039062 45.066406 C 116.433594 44.464844 115.859375 43.832031 115.320312 43.167969 C 114.777344 42.507812 114.265625 41.824219 113.792969 41.113281 C 113.316406 40.402344 112.878906 39.667969 112.476562 38.914062 C 112.070312 38.160156 111.707031 37.386719 111.378906 36.597656 C 111.050781 35.808594 110.765625 35.003906 110.515625 34.1875 C 110.269531 33.367188 110.0625 32.539062 109.894531 31.699219 C 109.726562 30.863281 109.601562 30.015625 109.519531 29.167969 C 109.433594 28.316406 109.390625 27.460938 109.390625 26.605469 C 109.390625 25.753906 109.433594 24.898438 109.519531 24.046875 C 109.601562 23.199219 109.726562 22.351562 109.894531 21.515625 C 110.0625 20.675781 110.269531 19.847656 110.515625 19.027344 C 110.765625 18.210938 111.050781 17.40625 111.378906 16.617188 C 111.707031 15.828125 112.070312 15.054688 112.476562 14.300781 C 112.878906 13.546875 113.316406 12.8125 113.792969 12.101562 C 114.265625 11.390625 114.777344 10.707031 115.320312 10.046875 C 115.859375 9.382812 116.433594 8.75 117.039062 8.148438 C 117.644531 7.542969 118.277344 6.96875 118.9375 6.425781 C 119.597656 5.882812 120.285156 5.375 120.996094 4.898438 C 121.707031 4.425781 122.4375 3.984375 123.191406 3.582031 C 123.945312 3.179688 124.71875 2.816406 125.507812 2.488281 C 126.296875 2.160156 127.101562 1.871094 127.921875 1.625 C 128.738281 1.375 129.566406 1.167969 130.40625 1 C 131.246094 0.835938 132.089844 0.710938 132.941406 0.625 C 133.792969 0.542969 134.644531 0.5 135.5 0.5 C 136.355469 0.5 137.207031 0.542969 138.058594 0.625 C 138.910156 0.710938 139.753906 0.835938 140.59375 1 C 141.429688 1.167969 142.261719 1.375 143.078125 1.625 C 143.894531 1.871094 144.699219 2.160156 145.492188 2.488281 C 146.28125 2.816406 147.050781 3.179688 147.804688 3.582031 C 148.5625 3.984375 149.292969 4.425781 150.003906 4.898438 C 150.714844 5.375 151.402344 5.882812 152.0625 6.425781 C 152.722656 6.96875 153.355469 7.542969 153.960938 8.148438 C 154.566406 8.75 155.136719 9.382812 155.679688 10.046875 C 156.222656 10.707031 156.730469 11.390625 157.207031 12.101562 C 157.683594 12.8125 158.121094 13.546875 158.523438 14.300781 C 158.925781 15.054688 159.292969 15.828125 159.621094 16.617188 C 159.945312 17.40625 160.234375 18.210938 160.484375 19.027344 C 160.730469 19.847656 160.9375 20.675781 161.105469 21.515625 C 161.273438 22.351562 161.398438 23.199219 161.480469 24.046875 C 161.566406 24.898438 161.605469 25.753906 161.605469 26.605469 Z M 161.605469 26.605469 " fill-opacity="1" fill-rule="nonzero"/></g><path fill="#a6a6a6" d="M 170.308594 104.929688 C 170.023438 104.929688 169.742188 104.902344 169.460938 104.84375 C 169.179688 104.789062 168.90625 104.707031 168.644531 104.597656 C 168.378906 104.488281 168.128906 104.355469 167.890625 104.195312 C 167.652344 104.039062 167.433594 103.855469 167.230469 103.65625 C 167.03125 103.453125 166.851562 103.234375 166.691406 102.996094 C 166.53125 102.757812 166.398438 102.507812 166.289062 102.242188 C 166.179688 101.980469 166.097656 101.707031 166.042969 101.425781 C 165.984375 101.144531 165.957031 100.863281 165.957031 100.578125 C 165.957031 99.582031 165.910156 98.585938 165.8125 97.59375 C 165.714844 96.597656 165.566406 95.613281 165.371094 94.636719 C 165.179688 93.65625 164.9375 92.691406 164.648438 91.734375 C 164.355469 90.78125 164.019531 89.84375 163.640625 88.921875 C 163.257812 88 162.832031 87.097656 162.363281 86.21875 C 161.890625 85.339844 161.378906 84.484375 160.824219 83.65625 C 160.269531 82.828125 159.675781 82.027344 159.042969 81.253906 C 158.410156 80.484375 157.742188 79.746094 157.035156 79.039062 C 156.332031 78.335938 155.59375 77.664062 154.824219 77.03125 C 154.050781 76.398438 153.25 75.808594 152.421875 75.253906 C 151.59375 74.699219 150.738281 74.1875 149.859375 73.714844 C 148.976562 73.246094 148.078125 72.820312 147.15625 72.4375 C 146.234375 72.054688 145.296875 71.71875 144.339844 71.429688 C 143.386719 71.140625 142.421875 70.898438 141.441406 70.703125 C 140.464844 70.511719 139.476562 70.363281 138.484375 70.265625 C 137.492188 70.167969 136.496094 70.121094 135.5 70.121094 C 134.503906 70.121094 133.507812 70.167969 132.515625 70.265625 C 131.519531 70.363281 130.535156 70.511719 129.558594 70.703125 C 128.578125 70.898438 127.613281 71.140625 126.65625 71.429688 C 125.703125 71.71875 124.765625 72.054688 123.84375 72.4375 C 122.921875 72.820312 122.019531 73.246094 121.140625 73.714844 C 120.261719 74.1875 119.40625 74.699219 118.578125 75.253906 C 117.75 75.808594 116.949219 76.398438 116.175781 77.03125 C 115.40625 77.664062 114.667969 78.335938 113.960938 79.039062 C 113.257812 79.746094 112.585938 80.484375 111.953125 81.253906 C 111.320312 82.027344 110.730469 82.828125 110.175781 83.65625 C 109.621094 84.484375 109.109375 85.339844 108.636719 86.21875 C 108.167969 87.097656 107.742188 88 107.359375 88.921875 C 106.976562 89.84375 106.640625 90.78125 106.351562 91.734375 C 106.0625 92.691406 105.820312 93.65625 105.625 94.636719 C 105.433594 95.613281 105.285156 96.597656 105.1875 97.59375 C 105.089844 98.585938 105.042969 99.582031 105.042969 100.578125 C 105.042969 100.863281 105.011719 101.144531 104.957031 101.425781 C 104.902344 101.707031 104.820312 101.980469 104.710938 102.242188 C 104.601562 102.507812 104.464844 102.757812 104.308594 102.996094 C 104.148438 103.234375 103.96875 103.453125 103.765625 103.65625 C 103.566406 103.855469 103.34375 104.035156 103.105469 104.195312 C 102.871094 104.355469 102.617188 104.488281 102.355469 104.597656 C 102.089844 104.707031 101.820312 104.789062 101.539062 104.84375 C 101.257812 104.902344 100.976562 104.929688 100.691406 104.929688 C 100.402344 104.929688 100.121094 104.902344 99.839844 104.84375 C 99.5625 104.789062 99.289062 104.707031 99.023438 104.597656 C 98.761719 104.488281 98.511719 104.355469 98.273438 104.195312 C 98.035156 104.035156 97.816406 103.855469 97.613281 103.65625 C 97.410156 103.453125 97.230469 103.234375 97.070312 102.996094 C 96.914062 102.757812 96.78125 102.507812 96.671875 102.242188 C 96.5625 101.980469 96.476562 101.707031 96.421875 101.425781 C 96.367188 101.144531 96.339844 100.863281 96.339844 100.578125 C 96.339844 99.296875 96.402344 98.015625 96.527344 96.738281 C 96.652344 95.464844 96.839844 94.195312 97.089844 92.9375 C 97.339844 91.679688 97.652344 90.4375 98.023438 89.210938 C 98.398438 87.984375 98.828125 86.777344 99.320312 85.589844 C 99.808594 84.40625 100.359375 83.25 100.960938 82.117188 C 101.566406 80.988281 102.226562 79.886719 102.9375 78.820312 C 103.652344 77.753906 104.414062 76.726562 105.226562 75.734375 C 106.042969 74.742188 106.902344 73.792969 107.808594 72.886719 C 108.714844 71.980469 109.664062 71.121094 110.65625 70.304688 C 111.648438 69.492188 112.675781 68.730469 113.742188 68.015625 C 114.808594 67.304688 115.910156 66.644531 117.039062 66.039062 C 118.171875 65.4375 119.328125 64.886719 120.511719 64.398438 C 121.699219 63.90625 122.90625 63.476562 124.132812 63.101562 C 125.359375 62.730469 126.601562 62.417969 127.859375 62.167969 C 129.117188 61.917969 130.386719 61.730469 131.660156 61.605469 C 132.9375 61.480469 134.21875 61.417969 135.5 61.417969 C 136.78125 61.417969 138.0625 61.480469 139.339844 61.605469 C 140.613281 61.730469 141.882812 61.917969 143.140625 62.167969 C 144.398438 62.417969 145.640625 62.730469 146.867188 63.101562 C 148.09375 63.476562 149.300781 63.90625 150.484375 64.398438 C 151.671875 64.886719 152.828125 65.4375 153.960938 66.039062 C 155.089844 66.644531 156.191406 67.304688 157.257812 68.015625 C 158.324219 68.730469 159.351562 69.492188 160.34375 70.304688 C 161.335938 71.121094 162.285156 71.980469 163.191406 72.886719 C 164.097656 73.792969 164.957031 74.742188 165.769531 75.734375 C 166.585938 76.726562 167.347656 77.753906 168.0625 78.820312 C 168.773438 79.886719 169.433594 80.988281 170.035156 82.117188 C 170.640625 83.25 171.1875 84.40625 171.679688 85.589844 C 172.171875 86.777344 172.601562 87.984375 172.972656 89.210938 C 173.347656 90.4375 173.65625 91.679688 173.90625 92.9375 C 174.160156 94.195312 174.347656 95.464844 174.472656 96.738281 C 174.597656 98.015625 174.660156 99.296875 174.660156 100.578125 C 174.660156 100.863281 174.632812 101.144531 174.578125 101.425781 C 174.519531 101.707031 174.4375 101.980469 174.328125 102.242188 C 174.21875 102.507812 174.085938 102.757812 173.925781 102.996094 C 173.769531 103.234375 173.589844 103.453125 173.386719 103.65625 C 173.183594 103.855469 172.964844 104.039062 172.726562 104.195312 C 172.488281 104.355469 172.238281 104.488281 171.976562 104.597656 C 171.710938 104.707031 171.4375 104.789062 171.160156 104.84375 C 170.878906 104.902344 170.59375 104.929688 170.308594 104.929688 Z M 170.308594 104.929688 " fill-opacity="1" fill-rule="nonzero"/></g></g></g><g fill="#0cc0df" fill-opacity="1"><g transform="translate(60.550719, 216.206895)"><g><path d="M 23.171875 -26.046875 C 32.203125 -24.859375 34.53125 -22.375 34.53125 -17.90625 L 34.53125 -17.5 C 34.53125 -13.34375 31.5625 -10.15625 25.578125 -10.15625 L 24.859375 -10.15625 C 18.859375 -10.15625 15.671875 -13.421875 15.671875 -21.265625 L 2.71875 -21.265625 L 2.71875 -20.546875 C 2.71875 -5.515625 10.46875 1.03125 25.171875 1.03125 C 39.796875 1.03125 47.71875 -5.921875 47.71875 -17.90625 L 47.71875 -18.703125 C 47.71875 -30.296875 40.84375 -34.921875 27.25 -36.765625 C 18.140625 -37.96875 16.296875 -40.359375 16.296875 -44.921875 L 16.296875 -45.3125 C 16.296875 -49.3125 19.34375 -52.1875 24.53125 -52.1875 L 25.25 -52.1875 C 31.8125 -52.1875 34.28125 -48.4375 34.28125 -40.28125 L 47.234375 -40.28125 L 47.234375 -41.953125 C 47.234375 -56.578125 40.515625 -63.375 25.171875 -63.375 C 10.953125 -63.375 3.203125 -56.109375 3.203125 -44.84375 L 3.203125 -43.953125 C 3.203125 -32.6875 9.59375 -27.890625 23.171875 -26.046875 Z M 23.171875 -26.046875 "/></g></g></g><g fill="#0cc0df" fill-opacity="1"><g transform="translate(112.572473, 216.206895)"><g><path d="M 17.828125 -62.34375 L 4.875 -62.34375 L 4.875 0 L 17.828125 0 Z M 17.828125 -62.34375 "/></g></g></g><g fill="#0cc0df" fill-opacity="1"><g transform="translate(136.785497, 216.206895)"><g><path d="M 52.421875 -39.875 L 52.109375 -27.40625 L 52.109375 0 L 65.0625 0 L 65.0625 -62.34375 L 45.875 -62.34375 L 34.765625 -22.453125 L 23.578125 -62.34375 L 4.46875 -62.34375 L 4.46875 0 L 17.421875 0 L 17.421875 -27.40625 L 17.015625 -39.875 L 28.125 0 L 41.3125 0 Z M 52.421875 -39.875 "/></g></g></g><g fill="#000000" fill-opacity="1"><g transform="translate(218.349189, 216.478551)"><g><path d="M 8.96875 -64.703125 L 21.625 -64.703125 C 36.539062 -64.703125 44 -58.847656 44 -47.140625 C 44 -42.578125 42.550781 -38.523438 39.65625 -34.984375 C 36.757812 -31.441406 32.195312 -29.671875 25.96875 -29.671875 L 24.953125 -29.671875 L 44.921875 -3.421875 C 45.660156 -2.304688 46.03125 -1.628906 46.03125 -1.390625 C 46.03125 -0.460938 45.597656 0 44.734375 0 L 42.890625 0 C 42.085938 0 41.503906 -0.242188 41.140625 -0.734375 L 19.78125 -28.84375 C 19.101562 -29.820312 18.765625 -30.625 18.765625 -31.25 C 18.765625 -33.21875 19.84375 -34.203125 22 -34.203125 L 26.0625 -34.203125 C 28.65625 -34.203125 30.875 -34.632812 32.71875 -35.5 C 34.570312 -36.363281 35.929688 -37.472656 36.796875 -38.828125 C 38.515625 -41.472656 39.375 -44.210938 39.375 -47.046875 C 39.375 -55.734375 33.425781 -60.078125 21.53125 -60.078125 L 9.703125 -60.078125 L 9.703125 -1.84375 C 9.703125 -1.351562 9.53125 -0.921875 9.1875 -0.546875 C 8.851562 -0.179688 8.410156 0 7.859375 0 L 6.9375 0 C 6.375 0 5.921875 -0.179688 5.578125 -0.546875 C 5.242188 -0.921875 5.078125 -1.351562 5.078125 -1.84375 L 5.078125 -60.359375 C 5.078125 -62.023438 5.335938 -63.164062 5.859375 -63.78125 C 6.390625 -64.394531 7.425781 -64.703125 8.96875 -64.703125 Z M 8.96875 -64.703125 "/></g></g></g><g fill="#000000" fill-opacity="1"><g transform="translate(264.475645, 216.478551)"><g><path d="M 22.28125 -57.6875 L 23.203125 -57.6875 C 24.429688 -57.6875 25.046875 -57.097656 25.046875 -55.921875 L 25.046875 -1.84375 C 25.046875 -1.351562 24.875 -0.921875 24.53125 -0.546875 C 24.195312 -0.179688 23.753906 0 23.203125 0 L 22.28125 0 C 21.726562 0 21.28125 -0.179688 20.9375 -0.546875 C 20.59375 -0.921875 20.421875 -1.351562 20.421875 -1.84375 L 20.421875 -55.921875 C 20.421875 -57.097656 21.039062 -57.6875 22.28125 -57.6875 Z M 2.3125 -64.703125 L 43.359375 -64.703125 C 43.910156 -64.703125 44.351562 -64.515625 44.6875 -64.140625 C 45.03125 -63.773438 45.203125 -63.347656 45.203125 -62.859375 L 45.203125 -61.84375 C 45.203125 -60.726562 44.585938 -60.171875 43.359375 -60.171875 L 2.3125 -60.171875 C 1.082031 -60.171875 0.46875 -60.726562 0.46875 -61.84375 L 0.46875 -62.859375 C 0.46875 -63.347656 0.648438 -63.773438 1.015625 -64.140625 C 1.390625 -64.515625 1.820312 -64.703125 2.3125 -64.703125 Z M 2.3125 -64.703125 "/></g></g></g></svg>